<svg xmlns="http://www.w3.org/2000/svg" width="200" height="200" viewBox="0 0 200 200">
  <defs>
    <g id="orn">
      <path d="M100 20c-12 10-24 22-24 36 0 16 16 24 24 24s24-8 24-24c0-14-12-26-24-36z" fill="none" stroke="#C0B283" stroke-opacity="0.08" stroke-width="1.5"/>
      <path d="M100 180c12-10 24-22 24-36 0-16-16-24-24-24s-24 8-24 24c0 14 12 26 24 36z" fill="none" stroke="#C0B283" stroke-opacity="0.08" stroke-width="1.5"/>
      <path d="M20 100c10-12 22-24 36-24 16 0 24 16 24 24s-8 24-24 24c-14 0-26-12-36-24z" fill="none" stroke="#C0B283" stroke-opacity="0.08" stroke-width="1.5"/>
      <path d="M180 100c-10 12-22 24-36 24-16 0-24-16-24-24s8-24 24-24c14 0 26 12 36 24z" fill="none" stroke="#C0B283" stroke-opacity="0.08" stroke-width="1.5"/>
      <circle cx="100" cy="100" r="14" fill="none" stroke="#C0B283" stroke-opacity="0.08" stroke-width="1.5"/>
      <path d="M100 60c-6 4-10 9-10 14 0 8 8 12 10 12s10-4 10-12c0-5-4-10-10-14z" fill="none" stroke="#C0B283" stroke-opacity="0.08" stroke-width="1.25"/>
      <path d="M100 140c6-4 10-9 10-14 0-8-8-12-10-12s-10 4-10 12c0 5 4 10 10 14z" fill="none" stroke="#C0B283" stroke-opacity="0.08" stroke-width="1.25"/>
    </g>
    <pattern id="p" width="200" height="200" patternUnits="userSpaceOnUse">
      <use href="#orn"/>
      <use href="#orn" transform="translate(100,100) rotate(45) scale(0.7)"/>
    </pattern>
  </defs>
  <rect width="100%" height="100%" fill="url(#p)"/>
</svg>






